<?xml version="1.0" encoding="UTF-8"?><svg version="1.1" viewBox="0 0 36.999 14.543" xmlns="http://www.w3.org/2000/svg"><path d="m2.2352 8.8505q0.090311-0.045156 0.090311-0.090311 0.045156-0.045156 0.13547-0.090311 0.18062-0.13547 0.22578-0.27093 0.090311-0.18062 0.18062-0.27093 0.045156-0.13547 0.090311-0.22578 0-0.22578-0.18062-0.13547-0.090311 0.045156-0.22578 0.18062-0.090311 0.090311-0.22578 0.31609-0.13547 0.22578-0.22578 0.4064-0.045156 0.090311-0.090311 0.27093-0.045156 0.13547 0.090311 0.045156zm0.27093 4.4252q-1.3998 0-2.032-0.90311-0.36124-0.49671-0.45156-1.2192-0.045156-0.09031 0-0.18062 0-0.13547 0-0.22578 0-0.13547 0.090311-0.4064 0.36124-0.99342 0.85796-1.8514 0.49671-0.85796 1.2192-1.5804 0.090311-0.090311 0.090311-0.13547 0.045156-0.045156 0.13547-0.090311 0.54187-0.45156 1.174-0.090311 0.22578 0.13547 0.4064 0.45156t0.090311 0.58702q-0.27093 1.5804-1.6256 2.5287-0.18062 0.13547-0.36124 0.18062-0.18062 0.04516-0.4064 0.09031-0.22578 0-0.36124 0.22578-0.27093 0.49671-0.22578 1.0837 0 0.58702 0.58702 0.58702 0.49671 0.09031 0.90311-0.13547 0.22578-0.09031 0.4064-0.22578 0.18062-0.13546 0.4064-0.27093 0.54187-0.36124 1.0386-0.8128t0.99342-0.94827q0.4064-0.36124 0.8128-0.76765 0.45156-0.4064 0.85796-0.76765 0.18062-0.18062 0.45156-0.31609 0.090311-0.045156 0.18062 0 0.13547 0 0.18062 0.090311 0 0.22578-0.045156 0.27093-0.045155 0.18062-0.27093 0.31609-0.72249 0.76765-1.445 1.5353-0.67733 0.72249-1.3998 1.4901-0.58702 0.58702-1.174 1.0386-0.58702 0.54187-1.0837 0.45156z"/><path d="m9.6795 12.192q0 0.18062-0.045156 0.27093-0.090311 0.22578-0.27093 0.36124-0.13547 0.13547-0.36124 0.09031-0.4064 0-0.58702-0.49671 0-0.09031-0.045156-0.13547 0-0.09031 0-0.18062 0.090311-0.54187 0.58702-0.63218 0.54187-0.09031 0.72249 0.49671v0.22578z"/><path d="m11.271 10.476q0-0.09031 0-0.18062 0-0.13547 0.09031-0.31609 0.09031-0.22578 0.18062-0.45156 0.04516-0.27093 0.18062-0.49671 0.22578-0.49671 0.54187-0.94827 0.31609-0.49671 0.67733-0.94827 0.4064-0.54187 1.0386-0.67733 0.54187-0.18062 1.0386 0.22578 0.4064 0.49671 0.13547 1.0837-0.13547 0.45156-0.63218 0.36124-0.18062-0.090311-0.31609-0.090311-0.18062 0-0.27093 0.090311-0.4064 0.49671-0.76764 1.0386t-0.58702 1.174q-0.27093 0.49671-0.18062 1.1289 0.04515 0.31609 0.31609 0.54187 0.27093 0.18062 0.58702 0.09031 0.54187-0.13547 0.85796-0.36124 0.58702-0.31609 1.0386-0.67733 0.49671-0.45156 0.94827-0.85796 0.49671-0.45156 0.99342-0.85796 0.31609-0.31609 0.58702-0.58702 0.31609-0.27093 0.63218-0.54187 0.18062-0.18062 0.36124-0.13547 0.09031 0 0.13547 0.090311 0.09031 0.045156 0.04516 0.090311-0.04516 0.090311-0.04516 0.18062 0 0.045156-0.09031 0.13547-0.13547 0.18062-0.27093 0.36124t-0.27093 0.36124q-0.67733 0.8128-1.445 1.5804-0.72249 0.76764-1.5353 1.445-0.36124 0.31609-0.90311 0.54187-0.49671 0.27093-1.1289 0.22578-0.63218-0.09031-1.1289-0.67733-0.18062-0.18062-0.31609-0.36124-0.13547-0.22578-0.27093-0.45156-0.27093-0.49671-0.22578-1.1289z"/><path d="m21.336 8.0829q0-0.13547-0.09031-0.13547t-0.18062 0.090311q-0.04516 0.045156-0.04516 0.090311 0 0.045156-0.04516 0.090311-0.76764 1.6256-0.94827 3.3867-0.04516 0.54187-0.09031 1.0837-0.04516 0.54187-0.09031 1.0837-0.13547 1.0386-1.1289 0.67733-1.0386-0.31609-1.3998-1.445-0.22578-0.8128-0.13547-1.7159 0-0.36124 0.04516-0.67733 0-0.31609 0.04516-0.67733 0-0.22578 0-0.4064t0.04516-0.4064q0.67733-4.0188 2.1675-7.6765 0.09031-0.27093 0.18062-0.54187 0.13547-0.27093 0.36124-0.49671 0.27092-0.31609 0.67732-0.4064 0.72249 0 0.8128 0.67733 0 0.4064-0.13547 0.8128-0.18062 0.49671-0.31609 1.0386-0.13547 0.54187-0.31609 1.0386-0.31609 0.99342-0.58702 1.9868-0.22578 0.99342-0.45156 2.032-0.04516 0-0.04516 0.045156 0.04516 0.045156 0.09031 0.045156 0 0 0.09031-0.045156 0.09031-0.18062 0.18062-0.36124 0.13547-0.18062 0.22578-0.36124 0.31609-0.45156 0.67733-0.76765 0.36124-0.27093 0.8128-0.18062 0.49671 0.090311 0.72249 0.49671 0.27093 0.36124 0.27093 0.76765 0.09031 0.49671 0.13547 1.0386 0.09031 0.49671 0.09031 1.0386 0 0.90311 0.31609 1.5804 0.09031 0.22578 0.18062 0.4064 0.09031 0.13547 0.18062 0.36124 0.18062 0.31609-0.27093 0.49671-0.09031 0-0.13547 0.04516-0.04516 0-0.13547 0-0.8128-0.13547-1.174-0.76764-0.22578-0.31609-0.31609-0.63218-0.09031-0.36124-0.18062-0.72249-0.04516-0.31609-0.09031-0.63218 0-0.31609 0-0.63218z"/><path d="m23.532 10.747q-0.04516-0.36124 0.04516-0.76765 0.09031-0.4064 0.18062-0.76765 0.22578-0.58702 0.49671-1.0837 0.22578-0.54187 0.54187-1.0837 0.09031-0.13547 0.18062-0.27093 0.13547-0.13547 0.27093-0.27093 0.22578-0.18062 0.49671-0.13547 0.31609 0 0.54187 0.22578 0.27093 0.27093 0.13547 0.58702-0.13547 0.36124-0.36124 0.72249-0.31609 0.63218-0.58702 1.2644-0.27093 0.58702-0.45156 1.2192-0.22578 0.76764-0.09031 1.445l0.04515 0.04516q0.09031 0.04515 0.22578 0.04515 0-0.04515 0-0.04515 0.04516 0 0.04516-0.04516 0.13547-0.09031 0.22578-0.22578 0.63218-0.90311 0.94827-1.8514 0.13547-0.4064 0.18062-0.8128 0.09031-0.45156-0.09031-0.90311-0.04516-0.18062 0.09031-0.31609t0.27093-0.090311q0.72249 0.18062 1.445 0.18062 0.72249-0.045156 1.445-0.045156 0.18062 0 0.54187 0.090311 0.18062 0 0.18062 0.18062 0 0.22578-0.09031 0.31609-0.13547 0.13547-0.22578 0.13547-0.4064 0.22578-0.99342 0.22578-0.22578 0-0.49671 0.045156-0.22578 0-0.45156 0-0.4064 0.090311-0.45156 0.4064-0.04515 0.22578-0.09031 0.4064 0 0.18062-0.09031 0.4064-0.09031 0.36124-0.22578 0.76765-0.09031 0.36124-0.22578 0.72249-0.36124 0.90311-0.99342 1.445-1.2192 1.174-2.1675-0.27093-0.54187-0.85796-0.45156-1.8965z"/><path d="m30.135 12.192q0.22578-0.18062 0.36124-0.4064 0.18062-0.22578 0.36124-0.45156 0.22578-0.31609 0.36124-0.58702 0.18062-0.27093 0.36124-0.54187 0.09031-0.13547 0.13547-0.22578 0.09031-0.13547 0.18062-0.22578 0.27093-0.31609 0.76764-0.090311 0.36124 0.27093 0.58702 0.67733 0.09031 0.22578 0.18062 0.45156t0.18062 0.45156 0.27093 0.27093q0.22578 0 0.4064-0.13547 0.09031-0.04515 0.18062-0.13547 0.63218-0.72249 0.90311-1.5353 0.27093-0.85796 0.13547-1.8062 0-0.4064-0.27093-0.67733-0.13547-0.13547-0.22578-0.31609-0.09031-0.13547 0-0.31609 0.04516-0.045156 0.13547-0.090311 0.09031-0.090311 0.22578-0.045156 1.1289 0.27093 1.445 1.3547 0.27093 0.76765 0.13547 1.6256-0.09031 0.58702-0.27093 1.1289-0.13547 0.54187-0.45156 1.0386-0.22578 0.31609-0.49671 0.58702t-0.63218 0.45156q-1.174 0.63218-2.0772-0.31609-0.18062-0.13547-0.31609-0.27093-0.09031-0.18062-0.22578-0.36124-0.09031-0.09031-0.22578-0.04515-0.09031 0-0.13547 0.09031-0.22578 0.22578-0.4064 0.49671-0.13547 0.27093-0.36124 0.49671-0.45156 0.67733-0.99342 1.0386-0.49671 0.4064-0.94827 0.27093t-0.76764-0.67733q-0.22578-0.45156-0.22578-0.8128 0-0.27093 0.04515-0.54187 0-0.31609 0.09031-0.58702 0.54187-1.8514 1.3547-3.7028 0.04516-0.13547 0.13547-0.27093 0.04516-0.13547 0.13547-0.27093 0.22578-0.36124 0.54187-0.49671 0.4064-0.22578 0.90311 0.045156 0.4064 0.27093 0.27093 0.72249-0.09031 0.27093-0.22578 0.58702-0.13547 0.27093-0.22578 0.54187l-1.0837 2.8448q-0.04515 0.09031-0.13547 0.27093-0.04516 0.13547-0.13547 0.27093-0.04516 0.13547-0.04516 0.22578t0.09031 0.04516v-0.04516z"/></svg>